<svg id="Layer_1" data-name="Layer 1" xmlns="http://www.w3.org/2000/svg" xmlns:xlink="http://www.w3.org/1999/xlink" viewBox="0 0 941 960.39"><defs><style>.cls-1{fill:url(#linear-gradient);}.cls-2{fill:url(#linear-gradient-2);}.cls-3{fill:url(#linear-gradient-3);}.cls-4{fill:url(#linear-gradient-4);}.cls-5{fill:url(#linear-gradient-5);}.cls-6{fill:url(#linear-gradient-6);}.cls-7{fill:url(#linear-gradient-7);}.cls-8{fill:url(#linear-gradient-8);}.cls-9{fill:url(#linear-gradient-9);}.cls-10{fill:url(#linear-gradient-10);}.cls-11{fill:url(#linear-gradient-11);}.cls-12{fill:url(#linear-gradient-12);}.cls-13{fill:url(#linear-gradient-13);}.cls-14{fill:url(#linear-gradient-14);}.cls-15{fill:url(#linear-gradient-15);}.cls-16{fill:url(#New_Gradient_Swatch_11);}.cls-17{fill:url(#New_Gradient_Swatch_11-2);}.cls-18{fill:url(#linear-gradient-16);}.cls-19{fill:url(#linear-gradient-17);}.cls-20{fill:url(#linear-gradient-18);}.cls-21{fill:url(#linear-gradient-19);}.cls-22{fill:url(#linear-gradient-20);}.cls-23{fill:url(#New_Gradient_Swatch_8);}.cls-24{fill:url(#New_Gradient_Swatch_11-3);}.cls-25{fill:url(#New_Gradient_Swatch_11-4);}.cls-26{fill:#f9ef61;}.cls-27{fill:url(#linear-gradient-21);}.cls-28{fill:url(#linear-gradient-22);}.cls-29{fill:url(#linear-gradient-23);}.cls-30{fill:url(#New_Gradient_Swatch_11-5);}.cls-31{fill:url(#New_Gradient_Swatch_11-6);}.cls-32{fill:url(#linear-gradient-24);}.cls-33{fill:url(#linear-gradient-25);}.cls-34{fill:url(#linear-gradient-26);}.cls-35{fill:url(#linear-gradient-27);}.cls-36{fill:url(#linear-gradient-28);}.cls-37{fill:url(#New_Gradient_Swatch_8-2);}.cls-38{fill:url(#New_Gradient_Swatch_11-7);}.cls-39{fill:url(#New_Gradient_Swatch_11-8);}.cls-40{fill:url(#linear-gradient-29);}.cls-41{fill:url(#linear-gradient-30);}.cls-42{fill:url(#linear-gradient-31);}.cls-43{fill:url(#New_Gradient_Swatch_11-9);}.cls-44,.cls-46{fill:none;stroke-miterlimit:10;stroke-width:0.25px;}.cls-44{stroke:#414d5f;}.cls-45{fill:#e4d24d;}.cls-46{stroke:#e9f1fa;}.cls-47{fill:url(#linear-gradient-32);}.cls-48{fill:url(#linear-gradient-33);}</style><linearGradient id="linear-gradient" x1="398.43" y1="834.12" x2="259.29" y2="731.03" gradientTransform="translate(889.22 87.1) rotate(60.07)" gradientUnits="userSpaceOnUse"><stop offset="0" stop-color="#fbeef5"/><stop offset="0.02" stop-color="#f4d3e6"/><stop offset="0.15" stop-color="#d04f9d"/><stop offset="0.19" stop-color="#bc4c9c"/><stop offset="0.31" stop-color="#83439a"/><stop offset="0.36" stop-color="#6d4099"/><stop offset="0.37" stop-color="#683d92"/><stop offset="0.43" stop-color="#4d2f6f"/><stop offset="0.49" stop-color="#362351"/><stop offset="0.55" stop-color="#251a3b"/><stop offset="0.62" stop-color="#19142a"/><stop offset="0.69" stop-color="#111021"/><stop offset="0.8" stop-color="#0f0f1e"/></linearGradient><linearGradient id="linear-gradient-2" x1="405" y1="825.26" x2="265.86" y2="722.17" gradientTransform="translate(853.37 90.61) rotate(60.07)" xlink:href="#linear-gradient"/><linearGradient id="linear-gradient-3" x1="414.04" y1="813.06" x2="274.9" y2="709.97" gradientTransform="translate(848.86 75.99) rotate(60.07)" xlink:href="#linear-gradient"/><linearGradient id="linear-gradient-4" x1="423.08" y1="800.86" x2="283.94" y2="697.77" gradientTransform="translate(844.36 61.37) rotate(60.07)" xlink:href="#linear-gradient"/><linearGradient id="linear-gradient-5" x1="428.48" y1="793.57" x2="289.34" y2="690.48" gradientTransform="translate(793.72 73.43) rotate(60.07)" xlink:href="#linear-gradient"/><linearGradient id="linear-gradient-6" x1="394.45" y1="839.5" x2="255.31" y2="736.41" gradientTransform="matrix(1, 0, 0, 1, 0, 0)" xlink:href="#linear-gradient"/><linearGradient id="linear-gradient-7" x1="431.05" y1="790.11" x2="291.91" y2="687.02" gradientTransform="matrix(1, 0, 0, 1, 0, 0)" xlink:href="#linear-gradient"/><linearGradient id="linear-gradient-8" x1="654.34" y1="837.06" x2="513.98" y2="733.07" gradientTransform="matrix(-0.87, -0.5, -0.5, 0.87, 1543.8, 420.5)" xlink:href="#linear-gradient"/><linearGradient id="linear-gradient-9" x1="660.96" y1="828.13" x2="520.6" y2="724.13" gradientTransform="matrix(-0.87, -0.5, -0.5, 0.87, 1531.9, 406.02)" xlink:href="#linear-gradient"/><linearGradient id="linear-gradient-10" x1="670.08" y1="815.81" x2="529.72" y2="711.82" gradientTransform="matrix(-0.87, -0.5, -0.5, 0.87, 1524.86, 409.74)" xlink:href="#linear-gradient"/><linearGradient id="linear-gradient-11" x1="679.2" y1="803.5" x2="538.84" y2="699.51" gradientTransform="matrix(-0.87, -0.5, -0.5, 0.87, 1517.82, 413.46)" xlink:href="#linear-gradient"/><linearGradient id="linear-gradient-12" x1="684.65" y1="796.16" x2="544.28" y2="692.16" gradientTransform="matrix(-0.87, -0.5, -0.5, 0.87, 1503.62, 390.38)" xlink:href="#linear-gradient"/><linearGradient id="linear-gradient-13" x1="650.32" y1="842.48" x2="509.96" y2="738.49" gradientTransform="matrix(-1, 0, 0, 1, 1220.38, 0)" xlink:href="#linear-gradient"/><linearGradient id="linear-gradient-14" x1="687.24" y1="792.66" x2="546.88" y2="688.66" gradientTransform="matrix(-1, 0, 0, 1, 1220.38, 0)" xlink:href="#linear-gradient"/><linearGradient id="linear-gradient-15" x1="-13.33" y1="679.38" x2="459.35" y2="692.51" gradientTransform="matrix(-1, 0, 0, 1, 427.1, 0)" gradientUnits="userSpaceOnUse"><stop offset="0.1" stop-color="#fbeef5"/><stop offset="0.12" stop-color="#f4d3e6"/><stop offset="0.2" stop-color="#d04f9d"/><stop offset="0.22" stop-color="#bc4c9c"/><stop offset="0.3" stop-color="#83439a"/><stop offset="0.34" stop-color="#6d4099"/><stop offset="0.41" stop-color="#673d91"/><stop offset="0.52" stop-color="#55347a"/><stop offset="0.65" stop-color="#382554"/><stop offset="0.81" stop-color="#111021"/><stop offset="0.82" stop-color="#0f0f1e"/></linearGradient><linearGradient id="New_Gradient_Swatch_11" x1="40.57" y1="626.41" x2="416.43" y2="626.41" gradientTransform="matrix(-1, 0, 0, 1, 427.1, 0)" gradientUnits="userSpaceOnUse"><stop offset="0" stop-color="#fbeef5"/><stop offset="0.04" stop-color="#f4d3e6"/><stop offset="0.24" stop-color="#d04f9d"/><stop offset="0.29" stop-color="#bc4c9c"/><stop offset="0.44" stop-color="#83439a"/><stop offset="0.51" stop-color="#6d4099"/><stop offset="0.58" stop-color="#673d91"/><stop offset="0.69" stop-color="#55347a"/><stop offset="0.83" stop-color="#382554"/><stop offset="0.99" stop-color="#111021"/><stop offset="1" stop-color="#0f0f1e"/></linearGradient><linearGradient id="New_Gradient_Swatch_11-2" x1="54.64" y1="464.85" x2="297.98" y2="605.34" xlink:href="#New_Gradient_Swatch_11"/><linearGradient id="linear-gradient-16" x1="26.3" y1="518.49" x2="501.08" y2="543.09" gradientTransform="matrix(-1, 0, 0, 1, 427.1, 0)" gradientUnits="userSpaceOnUse"><stop offset="0" stop-color="#fbeef5"/><stop offset="0.03" stop-color="#f4d3e6"/><stop offset="0.19" stop-color="#d04f9d"/><stop offset="0.24" stop-color="#bc4c9c"/><stop offset="0.37" stop-color="#83439a"/><stop offset="0.44" stop-color="#6d4099"/><stop offset="0.51" stop-color="#673d91"/><stop offset="0.62" stop-color="#55347a"/><stop offset="0.76" stop-color="#382554"/><stop offset="0.93" stop-color="#111021"/><stop offset="0.94" stop-color="#0f0f1e"/></linearGradient><linearGradient id="linear-gradient-17" x1="37.32" y1="484.58" x2="473.72" y2="499.71" gradientTransform="matrix(-1, 0, 0, 1, 427.1, 0)" xlink:href="#linear-gradient"/><linearGradient id="linear-gradient-18" x1="-9.81" y1="455.84" x2="472.35" y2="406.64" gradientTransform="matrix(-1, 0, 0, 1, 427.1, 0)" gradientUnits="userSpaceOnUse"><stop offset="0.1" stop-color="#fbeef5"/><stop offset="0.13" stop-color="#f4d3e6"/><stop offset="0.29" stop-color="#d04f9d"/><stop offset="0.33" stop-color="#bc4c9c"/><stop offset="0.45" stop-color="#83439a"/><stop offset="0.5" stop-color="#6d4099"/><stop offset="0.55" stop-color="#673d91"/><stop offset="0.64" stop-color="#55347a"/><stop offset="0.74" stop-color="#382554"/><stop offset="0.86" stop-color="#111021"/><stop offset="0.86" stop-color="#0f0f1e"/></linearGradient><linearGradient id="linear-gradient-19" x1="-13.07" y1="360.38" x2="525.27" y2="434.78" gradientTransform="matrix(-1, 0, 0, 1, 427.1, 0)" gradientUnits="userSpaceOnUse"><stop offset="0.09" stop-color="#fbeef5"/><stop offset="0.1" stop-color="#f4d3e6"/><stop offset="0.19" stop-color="#d04f9d"/><stop offset="0.22" stop-color="#bc4c9c"/><stop offset="0.32" stop-color="#83439a"/><stop offset="0.37" stop-color="#6d4099"/><stop offset="0.5" stop-color="#503173"/><stop offset="0.74" stop-color="#0f0f1e"/></linearGradient><linearGradient id="linear-gradient-20" x1="-15.08" y1="318.63" x2="644.2" y2="360.45" gradientTransform="matrix(-1, 0, 0, 1, 427.1, 0)" gradientUnits="userSpaceOnUse"><stop offset="0.11" stop-color="#fbeef5"/><stop offset="0.14" stop-color="#f4d3e6"/><stop offset="0.29" stop-color="#d04f9d"/><stop offset="0.33" stop-color="#bc4c9c"/><stop offset="0.45" stop-color="#83439a"/><stop offset="0.51" stop-color="#6d4099"/><stop offset="0.54" stop-color="#673d91"/><stop offset="0.6" stop-color="#55347a"/><stop offset="0.68" stop-color="#382554"/><stop offset="0.76" stop-color="#111021"/><stop offset="0.77" stop-color="#0f0f1e"/></linearGradient><linearGradient id="New_Gradient_Swatch_8" x1="157.42" y1="296.33" x2="291.48" y2="373.73" gradientTransform="matrix(-1, 0, 0, 1, 427.1, 0)" gradientUnits="userSpaceOnUse"><stop offset="0" stop-color="#799db1"/><stop offset="0.33" stop-color="#789aae"/><stop offset="0.54" stop-color="#7592a6"/><stop offset="0.71" stop-color="#6f8398"/><stop offset="0.87" stop-color="#676e83"/><stop offset="1" stop-color="#5e576d"/></linearGradient><linearGradient id="New_Gradient_Swatch_11-3" x1="172.78" y1="745.22" x2="113.02" y2="710.66" gradientTransform="matrix(-1, 0, 0, 1, 416.43, -6.13)" xlink:href="#New_Gradient_Swatch_11"/><linearGradient id="New_Gradient_Swatch_11-4" x1="170.09" y1="551.17" x2="110.32" y2="516.61" gradientTransform="matrix(-1, 0, 0, 1, 416.43, -6.13)" xlink:href="#New_Gradient_Swatch_11"/><linearGradient id="linear-gradient-21" x1="223.05" y1="76" x2="222.33" y2="333.3" gradientTransform="matrix(-1, 0, 0, 1, 427.1, 0)" gradientUnits="userSpaceOnUse"><stop offset="0" stop-color="#fff" stop-opacity="0"/><stop offset="0.2" stop-color="#fffefa" stop-opacity="0.01"/><stop offset="0.37" stop-color="#fefdec" stop-opacity="0.06"/><stop offset="0.53" stop-color="#fdfad4" stop-opacity="0.13"/><stop offset="0.68" stop-color="#fcf7b2" stop-opacity="0.22"/><stop offset="0.83" stop-color="#fbf287" stop-opacity="0.35"/><stop offset="0.88" stop-color="#faf076" stop-opacity="0.4"/></linearGradient><linearGradient id="linear-gradient-22" x1="225.53" y1="82.56" x2="224.77" y2="352.82" gradientTransform="matrix(-1, 0, 0, 1, 427.1, 0)" gradientUnits="userSpaceOnUse"><stop offset="0" stop-color="#fbfeff" stop-opacity="0"/><stop offset="1" stop-color="#dad523" stop-opacity="0.5"/></linearGradient><linearGradient id="linear-gradient-23" x1="521.92" y1="673.21" x2="994.6" y2="686.34" gradientTransform="matrix(1, 0, 0, 1, 0, 0)" xlink:href="#linear-gradient-15"/><linearGradient id="New_Gradient_Swatch_11-5" x1="575.82" y1="620.24" x2="951.68" y2="620.24" gradientTransform="matrix(1, 0, 0, 1, 0, 0)" xlink:href="#New_Gradient_Swatch_11"/><linearGradient id="New_Gradient_Swatch_11-6" x1="589.89" y1="458.68" x2="833.23" y2="599.17" gradientTransform="matrix(1, 0, 0, 1, 0, 0)" xlink:href="#New_Gradient_Swatch_11"/><linearGradient id="linear-gradient-24" x1="561.55" y1="512.32" x2="1036.33" y2="536.92" gradientTransform="matrix(1, 0, 0, 1, 0, 0)" xlink:href="#linear-gradient-16"/><linearGradient id="linear-gradient-25" x1="572.57" y1="478.41" x2="1008.97" y2="493.54" gradientTransform="matrix(1, 0, 0, 1, 0, 0)" xlink:href="#linear-gradient"/><linearGradient id="linear-gradient-26" x1="525.44" y1="449.68" x2="1007.6" y2="400.48" gradientTransform="matrix(1, 0, 0, 1, 0, 0)" xlink:href="#linear-gradient-18"/><linearGradient id="linear-gradient-27" x1="522.18" y1="354.21" x2="1060.52" y2="428.61" gradientTransform="matrix(1, 0, 0, 1, 0, 0)" xlink:href="#linear-gradient-19"/><linearGradient id="linear-gradient-28" x1="520.17" y1="312.46" x2="1179.45" y2="354.28" gradientTransform="matrix(1, 0, 0, 1, 0, 0)" xlink:href="#linear-gradient-20"/><linearGradient id="New_Gradient_Swatch_8-2" x1="692.67" y1="290.16" x2="826.73" y2="367.56" gradientTransform="matrix(1, 0, 0, 1, 0, 0)" xlink:href="#New_Gradient_Swatch_8"/><linearGradient id="New_Gradient_Swatch_11-7" x1="697.36" y1="732.92" x2="637.6" y2="698.36" gradientTransform="matrix(1, 0, 0, 1, 0, 0)" xlink:href="#New_Gradient_Swatch_11"/><linearGradient id="New_Gradient_Swatch_11-8" x1="694.67" y1="538.87" x2="634.9" y2="504.31" gradientTransform="matrix(1, 0, 0, 1, 0, 0)" xlink:href="#New_Gradient_Swatch_11"/><linearGradient id="linear-gradient-29" x1="758.3" y1="69.83" x2="757.58" y2="327.13" gradientTransform="matrix(1, 0, 0, 1, 0, 0)" xlink:href="#linear-gradient-21"/><linearGradient id="linear-gradient-30" x1="760.78" y1="76.39" x2="760.02" y2="346.65" gradientTransform="matrix(1, 0, 0, 1, 0, 0)" xlink:href="#linear-gradient-22"/><linearGradient id="linear-gradient-31" x1="252.23" y1="865.68" x2="739.09" y2="865.68" gradientUnits="userSpaceOnUse"><stop offset="0.11" stop-color="#fbeef5"/><stop offset="0.15" stop-color="#f4d3e6"/><stop offset="0.33" stop-color="#d04f9d"/><stop offset="0.35" stop-color="#bc4c9c"/><stop offset="0.41" stop-color="#83439a"/><stop offset="0.44" stop-color="#6d4099"/><stop offset="0.49" stop-color="#5b3681"/><stop offset="0.57" stop-color="#3f285d"/><stop offset="0.66" stop-color="#2a1d42"/><stop offset="0.75" stop-color="#1b152e"/><stop offset="0.84" stop-color="#121122"/><stop offset="0.93" stop-color="#0f0f1e"/></linearGradient><linearGradient id="New_Gradient_Swatch_11-9" x1="313.13" y1="782.11" x2="652.28" y2="854.47" gradientTransform="matrix(1, 0, 0, 1, 0, 0)" xlink:href="#New_Gradient_Swatch_11"/><linearGradient id="linear-gradient-32" x1="494.05" y1="528.93" x2="493.42" y2="813.41" gradientUnits="userSpaceOnUse"><stop offset="0.16" stop-color="#fff" stop-opacity="0"/><stop offset="0.46" stop-color="#f6f1c6" stop-opacity="0.13"/><stop offset="1" stop-color="#e4d24d" stop-opacity="0.4"/></linearGradient><linearGradient id="linear-gradient-33" x1="494.16" y1="402.02" x2="493.32" y2="777.23" gradientUnits="userSpaceOnUse"><stop offset="0.21" stop-color="#fff" stop-opacity="0"/><stop offset="0.49" stop-color="#f6f1c6" stop-opacity="0.13"/><stop offset="1" stop-color="#e4d24d" stop-opacity="0.4"/></linearGradient></defs><title>conectivity_icon</title><rect class="cls-1" x="367.14" y="758.75" width="4.29" height="107.56" transform="translate(-529.81 721.05) rotate(-60.07)"/><rect class="cls-2" x="346.19" y="693.33" width="4.29" height="179.89" transform="translate(-514.96 688.24) rotate(-60.07)"/><rect class="cls-3" x="356.57" y="682.12" width="4.29" height="179.89" transform="translate(-500.04 691.62) rotate(-60.07)"/><rect class="cls-4" x="366.96" y="670.92" width="4.29" height="179.89" transform="translate(-485.12 695.01) rotate(-60.07)"/><rect class="cls-5" x="331.21" y="686.39" width="4.29" height="73.42" transform="translate(-470.3 645.11) rotate(-60.07)"/><path class="cls-6" d="M317.4,789.67a16.09,16.09,0,0,1-8-2.07c-2.66-1.53-4.19-3.76-4.19-6.1s1.31-4.21,3.69-5.58c4.29-2.48,10.5-2.36,15.09.29,2.66,1.54,4.19,3.76,4.19,6.11s-1.31,4.2-3.69,5.57A14.31,14.31,0,0,1,317.4,789.67ZM316,778.42a10,10,0,0,0-5,1.21c-1,.57-1.54,1.25-1.54,1.87s.78,1.66,2,2.39a11.49,11.49,0,0,0,10.81.29c1-.57,1.54-1.25,1.54-1.86s-.78-1.67-2-2.4A11.84,11.84,0,0,0,316,778.42Z" transform="translate(-10.67 -6.13)"/><path class="cls-7" d="M371,752.84a16.1,16.1,0,0,1-8-2.07c-2.66-1.54-4.18-3.76-4.18-6.11s1.31-4.2,3.68-5.57a15.78,15.78,0,0,1,15.09.29c2.66,1.53,4.19,3.76,4.19,6.1s-1.31,4.21-3.69,5.58A14.3,14.3,0,0,1,371,752.84Zm-1.37-11.25a10,10,0,0,0-5,1.21c-1,.57-1.55,1.25-1.55,1.86s.79,1.67,2.05,2.4a11.47,11.47,0,0,0,10.8.29c1-.57,1.54-1.25,1.54-1.87s-.78-1.66-2-2.39A11.84,11.84,0,0,0,369.58,741.59Z" transform="translate(-10.67 -6.13)"/><rect class="cls-8" x="541.19" y="813.12" width="108.5" height="4.32" transform="translate(-338.02 399.66) rotate(-29.93)"/><rect class="cls-9" x="525.85" y="783.61" width="181.47" height="4.32" transform="translate(-320.48 406.27) rotate(-29.93)"/><rect class="cls-10" x="515.37" y="772.3" width="181.47" height="4.32" transform="translate(-316.24 399.54) rotate(-29.93)"/><rect class="cls-11" x="504.89" y="761" width="181.47" height="4.32" transform="translate(-312 392.8) rotate(-29.93)"/><rect class="cls-12" x="594.66" y="722.9" width="74.07" height="4.32" transform="translate(-288.18 405.71) rotate(-29.93)"/><path class="cls-13" d="M640.6,790.43c-2.39-1.39-3.71-3.39-3.71-5.63s1.54-4.61,4.22-6.16c4.63-2.67,10.89-2.79,15.22-.29,2.4,1.38,3.72,3.38,3.72,5.62s-1.54,4.61-4.22,6.16a16.27,16.27,0,0,1-8.05,2.09A14.46,14.46,0,0,1,640.6,790.43Zm2.67-8c-1.27.73-2.06,1.66-2.06,2.41s.57,1.31,1.56,1.88a11.54,11.54,0,0,0,10.89-.29c1.28-.74,2.07-1.66,2.07-2.42s-.57-1.3-1.56-1.88a10.1,10.1,0,0,0-5-1.22A11.94,11.94,0,0,0,643.27,782.39Z" transform="translate(-10.67 -6.13)"/><path class="cls-14" d="M586.59,753.27c-2.4-1.38-3.72-3.38-3.72-5.62s1.54-4.61,4.23-6.16a15.9,15.9,0,0,1,15.22-.3c2.4,1.39,3.72,3.39,3.72,5.63s-1.54,4.61-4.23,6.16a16.21,16.21,0,0,1-8,2.09A14.47,14.47,0,0,1,586.59,753.27Zm2.67-8c-1.27.74-2.06,1.66-2.06,2.42s.56,1.3,1.55,1.88a11.59,11.59,0,0,0,10.9-.3c1.27-.73,2.06-1.66,2.06-2.41s-.57-1.31-1.55-1.88a10.11,10.11,0,0,0-5-1.23A11.91,11.91,0,0,0,589.26,745.23Z" transform="translate(-10.67 -6.13)"/><path class="cls-15" d="M22.64,704.18l144.62,83.5c17.72,10.24,48.68,9,69.15-2.86l133.18-76.9c10.24-5.9,15.91-13.33,16.81-20.55s.11-62.29.11-62.29L229.93,584.5c-17.72-10.23-48.68-9-69.15,2.87L10.67,627.19s.08,51.7,0,59.49C10.61,693.24,14.54,699.51,22.64,704.18Z" transform="translate(-10.67 -6.13)"/><path class="cls-16" d="M22.64,644.5,167.26,728c17.72,10.24,48.68,9,69.15-2.86l133.18-76.9c11.47-6.62,17.21-15.15,16.92-23.16-.23-6.29-4.16-12.26-11.95-16.76l-144.63-83.5c-17.72-10.23-48.68-9-69.15,2.87L27.6,604.58c-11.2,6.47-16.94,14.75-16.93,22.61C10.68,633.68,14.62,639.87,22.64,644.5Z" transform="translate(-10.67 -6.13)"/><path class="cls-17" d="M22.64,606.74l144.62,83.5c17.72,10.23,48.68,9,69.15-2.86l133.18-76.9c10.24-5.91,15.91-13.33,16.81-20.55s.11-62.3.11-62.3L229.93,487.06c-17.72-10.23-48.68-8.95-69.15,2.87L10.67,529.74s.08,51.7,0,59.5C10.61,595.8,14.54,602.07,22.64,606.74Z" transform="translate(-10.67 -6.13)"/><path class="cls-18" d="M22.64,547.06l144.62,83.5c17.72,10.23,48.68,9,69.15-2.87L369.59,550.8c11.47-6.62,17.21-15.15,16.92-23.17-.23-6.28-4.16-12.26-11.95-16.75l-144.63-83.5c-17.72-10.23-48.68-8.95-69.15,2.86L27.6,507.14c-11.2,6.47-16.94,14.75-16.93,22.6C10.68,536.23,14.62,542.43,22.64,547.06Z" transform="translate(-10.67 -6.13)"/><path class="cls-19" d="M22.64,509.3l144.62,83.5c17.72,10.23,48.68,9,69.15-2.87L369.59,513c10.24-5.91,15.91-13.33,16.81-20.56s.11-62.29.11-62.29L229.93,389.62c-17.72-10.24-48.68-8.95-69.15,2.86L10.67,432.3s.08,51.7,0,59.5C10.61,498.36,14.54,504.63,22.64,509.3Z" transform="translate(-10.67 -6.13)"/><path class="cls-20" d="M22.64,449.62l144.62,83.5c17.72,10.23,48.68,9,69.15-2.87l133.18-76.89c11.47-6.63,17.21-15.15,16.92-23.17-.23-6.28-4.16-12.26-11.95-16.75l-144.63-83.5c-17.72-10.24-48.68-8.95-69.15,2.86L27.6,409.7c-11.2,6.46-16.94,14.75-16.93,22.6C10.68,438.79,14.62,445,22.64,449.62Z" transform="translate(-10.67 -6.13)"/><path class="cls-21" d="M22.64,411.86l144.62,83.5c17.72,10.23,48.68,8.95,69.15-2.87L369.59,415.6c10.24-5.91,15.91-13.33,16.81-20.56s.11-62.29.11-62.29L229.93,292.17c-17.72-10.23-48.68-8.95-69.15,2.87L10.67,334.86s.08,51.7,0,59.49C10.61,400.91,14.54,407.18,22.64,411.86Z" transform="translate(-10.67 -6.13)"/><path class="cls-22" d="M22.64,352.18l144.62,83.5c17.72,10.23,48.68,8.94,69.15-2.87l133.18-76.89c11.47-6.63,17.21-15.15,16.92-23.17-.23-6.29-4.16-12.26-11.95-16.76l-144.63-83.5c-17.72-10.23-48.68-9-69.15,2.87L27.6,312.25C16.4,318.72,10.66,327,10.67,334.86,10.68,341.35,14.62,347.55,22.64,352.18Z" transform="translate(-10.67 -6.13)"/><path class="cls-23" d="M118.67,342.08c2.64,10.05,10.68,19.75,24.12,27.5,33.3,19.23,87.09,19.34,120.15.26,13.19-7.62,21.07-17.13,23.69-27,3.93-14.94-4.11-30.78-24.13-42.32-33.29-19.23-87.09-19.34-120.14-.26C122.64,311.59,114.76,327.24,118.67,342.08Z" transform="translate(-10.67 -6.13)"/><polygon class="cls-24" points="284.17 720.93 360.45 676.89 360.68 666.12 284.4 710.16 284.17 720.93"/><polygon class="cls-25" points="286.87 526.88 363.14 482.84 363.37 472.07 287.1 516.11 286.87 526.88"/><path class="cls-26" d="M118.67,342.08c2.64,10.05,10.68,19.75,24.12,27.5,33.3,19.23,87.09,19.34,120.15.26,13.19-7.62,21.07-17.13,23.69-27-2.64-10.05-10.69-19.75-24.13-27.5C229.21,296.07,175.41,296,142.36,315,129.16,322.66,121.28,332.17,118.67,342.08Z" transform="translate(-10.67 -6.13)"/><path class="cls-27" d="M111.61,57.7c2.91,11.06,7.49,286.76,7.49,286.76l2.19,1a189.25,189.25,0,0,0,164.91-1h0s7.3-275.06,10.17-286c-2.9-11.06-11.75-21.73-26.53-30.25C233.21,7.09,174,7,137.67,28,123.16,36.34,114.49,46.81,111.61,57.7Z" transform="translate(-10.67 -6.13)"/><path class="cls-28" d="M127.17,62.91c2.35,11.51-4.54,291.54,7.38,300.42a112.16,112.16,0,0,0,69.67,21.56c41.51-1.35,50.64-12.33,63.77-22.11,11.7-8.72,5.88-287.7,8.2-299-2.34-11.51-9.48-22.62-21.4-31.49-29.54-22-77.27-22.14-106.6-.29C136.49,40.67,129.49,51.57,127.17,62.91Z" transform="translate(-10.67 -6.13)"/><path class="cls-29" d="M939.71,698l-144.62,83.5c-17.73,10.23-48.69,8.94-69.15-2.87L592.75,701.76c-10.23-5.91-15.9-13.34-16.8-20.56s-.12-62.29-.12-62.29l156.58-40.58c17.73-10.23,48.69-9,69.15,2.87L951.68,621s-.08,51.7,0,59.49C951.74,687.07,947.81,693.34,939.71,698Z" transform="translate(-10.67 -6.13)"/><path class="cls-30" d="M939.71,638.34,795.09,721.83c-17.73,10.24-48.69,8.95-69.15-2.86l-133.19-76.9c-11.47-6.62-17.21-15.14-16.92-23.16.23-6.29,4.17-12.26,12-16.76l144.62-83.5c17.73-10.23,48.69-8.95,69.15,2.87l133.19,76.89c11.2,6.47,16.94,14.76,16.93,22.61C951.67,627.51,947.73,633.7,939.71,638.34Z" transform="translate(-10.67 -6.13)"/><path class="cls-31" d="M939.71,600.57l-144.62,83.5c-17.73,10.24-48.69,8.95-69.15-2.86l-133.19-76.9c-10.23-5.91-15.9-13.33-16.8-20.55s-.12-62.29-.12-62.29l156.58-40.58c17.73-10.23,48.69-8.95,69.15,2.87l150.12,39.81s-.08,51.7,0,59.5C951.74,589.63,947.81,595.9,939.71,600.57Z" transform="translate(-10.67 -6.13)"/><path class="cls-32" d="M939.71,540.89l-144.62,83.5c-17.73,10.23-48.69,9-69.15-2.86l-133.19-76.9c-11.47-6.62-17.21-15.15-16.92-23.16.23-6.29,4.17-12.26,12-16.76l144.62-83.5c17.73-10.23,48.69-8.95,69.15,2.87L934.75,501c11.2,6.47,16.94,14.75,16.93,22.6C951.67,530.07,947.73,536.26,939.71,540.89Z" transform="translate(-10.67 -6.13)"/><path class="cls-33" d="M939.71,503.13l-144.62,83.5c-17.73,10.23-48.69,9-69.15-2.87L592.75,506.87c-10.23-5.91-15.9-13.33-16.8-20.55s-.12-62.3-.12-62.3l156.58-40.57c17.73-10.23,48.69-8.95,69.15,2.86l150.12,39.82s-.08,51.7,0,59.5C951.74,492.19,947.81,498.46,939.71,503.13Z" transform="translate(-10.67 -6.13)"/><path class="cls-34" d="M939.71,443.45,795.09,527c-17.73,10.23-48.69,8.95-69.15-2.87L592.75,447.19C581.28,440.57,575.54,432,575.83,424c.23-6.28,4.17-12.26,12-16.75l144.62-83.5c17.73-10.24,48.69-8.95,69.15,2.86l133.19,76.9c11.2,6.47,16.94,14.75,16.93,22.6C951.67,432.62,947.73,438.82,939.71,443.45Z" transform="translate(-10.67 -6.13)"/><path class="cls-35" d="M939.71,405.69l-144.62,83.5c-17.73,10.23-48.69,8.95-69.15-2.87L592.75,409.43c-10.23-5.91-15.9-13.33-16.8-20.56s-.12-62.29-.12-62.29L732.41,286c17.73-10.24,48.69-8.95,69.15,2.86l150.12,39.82s-.08,51.7,0,59.5C951.74,394.74,947.81,401,939.71,405.69Z" transform="translate(-10.67 -6.13)"/><path class="cls-36" d="M939.71,346l-144.62,83.5c-17.73,10.23-48.69,8.95-69.15-2.87L592.75,349.75c-11.47-6.63-17.21-15.15-16.92-23.17.23-6.29,4.17-12.26,12-16.76l144.62-83.5c17.73-10.23,48.69-8.94,69.15,2.87l133.19,76.89c11.2,6.47,16.94,14.76,16.93,22.61C951.67,335.18,947.73,341.38,939.71,346Z" transform="translate(-10.67 -6.13)"/><path class="cls-37" d="M843.68,335.91c-2.64,10-10.69,19.75-24.12,27.5-33.3,19.23-87.09,19.34-120.15.26-13.19-7.62-21.08-17.13-23.69-27-3.94-14.94,4.11-30.77,24.12-42.32,33.3-19.23,87.09-19.34,120.15-.26C839.71,305.42,847.59,321.07,843.68,335.91Z" transform="translate(-10.67 -6.13)"/><polygon class="cls-38" points="656.83 714.76 580.56 670.73 580.33 659.96 656.6 703.99 656.83 714.76"/><polygon class="cls-39" points="654.13 520.71 577.86 476.68 577.63 465.9 653.91 509.94 654.13 520.71"/><path class="cls-26" d="M843.68,335.91c-2.64,10-10.69,19.75-24.12,27.5-33.3,19.23-87.09,19.34-120.15.26-13.19-7.62-21.08-17.13-23.69-27,2.64-10.05,10.69-19.75,24.12-27.5,33.3-19.23,87.09-19.34,120.15-.26C833.18,316.49,841.07,326,843.68,335.91Z" transform="translate(-10.67 -6.13)"/><path class="cls-40" d="M850.73,51.53c-2.9,11.06-7.48,286.76-7.48,286.76l-2.19,1a189.25,189.25,0,0,1-164.91-1h0s-7.3-275.06-10.18-286c2.91-11.06,11.76-21.73,26.54-30.25C729.14.93,788.31.81,824.67,21.8,839.18,30.17,847.86,40.64,850.73,51.53Z" transform="translate(-10.67 -6.13)"/><path class="cls-41" d="M835.17,56.74c-2.34,11.51,4.54,291.55-7.38,300.42a112.14,112.14,0,0,1-69.67,21.56c-41.5-1.35-50.63-12.33-63.76-22.11-11.7-8.71-5.89-287.7-8.21-299,2.35-11.51,9.48-22.62,21.4-31.49,29.55-22,77.28-22.14,106.6-.29C825.86,34.5,832.85,45.4,835.17,56.74Z" transform="translate(-10.67 -6.13)"/><polygon class="cls-42" points="647.51 865.34 482.87 960.39 319.42 866.02 319.42 818.8 484.06 770.97 647.51 818.11 647.51 865.34"/><polygon class="cls-43" points="647.51 818.11 482.87 913.16 319.42 818.8 484.06 723.74 647.51 818.11"/><polyline class="cls-44" points="318.17 842.07 483.46 936.52 646.61 844.21"/><path class="cls-45" d="M564.16,828.6c-1.63,9-8.44,17.73-20.39,24.65-27.61,15.92-72.22,16-99.61.19-11.76-6.78-18.44-15.39-20.05-24.28,1.63-9,8.44-17.73,20.39-24.64,27.61-15.93,72.22-16,99.61-.2C555.87,811.11,562.55,819.71,564.16,828.6Z" transform="translate(-10.67 -6.13)"/><ellipse class="cls-46" cx="494.13" cy="826.38" rx="92.37" ry="53.33" transform="translate(-15.86 -3.01) rotate(-0.36)"/><path id="BGPc" class="cls-47" d="M564,585.87c-1.63,7.34-.85,243.77-.85,243.77h0c-42.79,17.46-93.19,17.39-135.9-.2l-2.29-.94s.6-234.93-1-242.18c1.63-7.34,8.44-14.46,20.39-20.1,27.61-13,72.22-13.07,99.61-.16C555.66,571.59,562.34,578.62,564,585.87Z" transform="translate(-10.67 -6.13)"/><path id="BCPc" class="cls-48" d="M542.05,474.18c-1.12,8.94-.58,325.76-.58,325.76h0c-29.41,21.28-64.05,21.19-93.4-.24l-1.57-1.15s.41-315-.7-323.82c1.12-8.94,5.8-17.63,14-24.5,19-15.84,49.63-15.93,68.46-.2C536.35,456.78,540.94,465.34,542.05,474.18Z" transform="translate(-10.67 -6.13)"/></svg>