<svg xmlns="http://www.w3.org/2000/svg" xmlns:xlink="http://www.w3.org/1999/xlink" viewBox="0 0 450.11 519.49"><defs><style>.cls-1{fill:url(#New_Gradient_Swatch_14);}.cls-2{fill:url(#New_Gradient_Swatch_14-2);}.cls-3{fill:url(#New_Gradient_Swatch_14-3);}.cls-4{fill:url(#linear-gradient);}.cls-5{fill:url(#linear-gradient-2);}.cls-6{fill:url(#linear-gradient-3);}.cls-7{fill:url(#New_Gradient_Swatch_8);}.cls-8{fill:url(#New_Gradient_Swatch_14-4);}</style><linearGradient id="New_Gradient_Swatch_14" x1="-41.36" y1="352.62" x2="596.57" y2="440.79" gradientUnits="userSpaceOnUse"><stop offset="0" stop-color="#5614af"/><stop offset="0.18" stop-color="#6a31a2"/><stop offset="0.57" stop-color="#9d7c82"/><stop offset="1" stop-color="#dad55c"/></linearGradient><linearGradient id="New_Gradient_Swatch_14-2" x1="515.48" y1="395.83" x2="-48.94" y2="306.62" xlink:href="#New_Gradient_Swatch_14"/><linearGradient id="New_Gradient_Swatch_14-3" x1="355.43" y1="233.66" x2="32.9" y2="98.13" xlink:href="#New_Gradient_Swatch_14"/><linearGradient id="linear-gradient" x1="153.07" y1="-22.18" x2="375.74" y2="504.71" gradientUnits="userSpaceOnUse"><stop offset="0.04" stop-color="#fceef8"/><stop offset="0.07" stop-color="#f7bce7"/><stop offset="0.17" stop-color="#eb38bb"/><stop offset="0.28" stop-color="#c226bc"/><stop offset="0.45" stop-color="#890dbe"/><stop offset="0.53" stop-color="#7303bf"/><stop offset="0.59" stop-color="#6d03b7"/><stop offset="0.67" stop-color="#5d02a0"/><stop offset="0.78" stop-color="#43027a"/><stop offset="0.91" stop-color="#1f0147"/><stop offset="1" stop-color="#03001e"/></linearGradient><linearGradient id="linear-gradient-2" x1="384.9" y1="227.08" x2="63.03" y2="181.24" gradientUnits="userSpaceOnUse"><stop offset="0.04" stop-color="#fceef8"/><stop offset="0.07" stop-color="#f7bce7"/><stop offset="0.17" stop-color="#eb38bb"/><stop offset="0.26" stop-color="#c226bc"/><stop offset="0.38" stop-color="#890dbe"/><stop offset="0.45" stop-color="#7303bf"/><stop offset="0.51" stop-color="#6d03b7"/><stop offset="0.62" stop-color="#5d02a0"/><stop offset="0.75" stop-color="#43027a"/><stop offset="0.89" stop-color="#1f0147"/><stop offset="1" stop-color="#03001e"/></linearGradient><linearGradient id="linear-gradient-3" x1="59.42" y1="216.08" x2="787.47" y2="119.12" gradientUnits="userSpaceOnUse"><stop offset="0.04" stop-color="#fceef8"/><stop offset="0.07" stop-color="#f7bce7"/><stop offset="0.17" stop-color="#eb38bb"/><stop offset="0.21" stop-color="#c226bc"/><stop offset="0.26" stop-color="#890dbe"/><stop offset="0.29" stop-color="#7303bf"/><stop offset="0.31" stop-color="#6d03b7"/><stop offset="0.34" stop-color="#5d02a0"/><stop offset="0.38" stop-color="#43027a"/><stop offset="0.43" stop-color="#1f0147"/><stop offset="0.46" stop-color="#03001e"/></linearGradient><linearGradient id="New_Gradient_Swatch_8" x1="322.38" y1="256.89" x2="95.34" y2="59.98" xlink:href="#New_Gradient_Swatch_14"/><linearGradient id="New_Gradient_Swatch_14-4" x1="331.59" y1="211.08" x2="211.88" y2="170.96" xlink:href="#New_Gradient_Swatch_14"/></defs><title>security_icon</title><g id="Layer_2" data-name="Layer 2"><path class="cls-1" d="M453.31,413.54,280.25,513.45C259.05,525.7,222,524.16,197.51,510L38.14,418c-12.24-7.07-19-15.95-20.1-24.6s-.14-42.28-.14-42.28l187.36-80.81c21.21-12.24,58.25-10.7,82.74,3.43l179.63,79.9s-.1,29.61,0,38.94C467.71,400.44,463,407.94,453.31,413.54Z" transform="translate(-17.52 -2.22)"/><path class="cls-2" d="M453.31,374.37,280.25,474.29c-21.2,12.24-58.25,10.71-82.74-3.43l-159.37-92c-13.72-7.93-20.59-18.13-20.24-27.72.27-7.53,5-14.67,14.3-20.05l173.06-99.92c21.21-12.24,58.25-10.71,82.74,3.43l159.37,92c13.41,7.74,20.27,17.65,20.26,27C467.62,361.42,462.91,368.83,453.31,374.37Z" transform="translate(-17.52 -2.22)"/></g><g id="Layer_4" data-name="Layer 4"><path class="cls-3" d="M251.25,368.85s-26.18-38-53-87.67C143.48,179.66,108.5,16.74,108.5,16.74L134.3,2.22l118,8.8,118,127.4s10,153.46-64,205.08a206.85,206.85,0,0,1-53,26.5" transform="translate(-17.52 -2.22)"/><path class="cls-4" d="M225.45,383.36s-26.18-38-53-87.67c-74-137-64-278.95-64-278.95l118,8.79,118,127.4s10,153.46-64,205.09a207,207,0,0,1-53,26.49" transform="translate(-17.52 -2.22)"/><path class="cls-5" d="M275,342.28a191.51,191.51,0,0,1-43.31,22.37c-2.78,1-4.37,1.47-4.37,1.47l-1.79-1s-23.58-34.24-47.69-78.9C111.29,162.85,120.29,35.12,120.29,35.12l6.42.48L226.46,43,332.59,157.7S341.61,295.81,275,342.28Z" transform="translate(-17.52 -2.22)"/><path class="cls-6" d="M275,342.28a191.51,191.51,0,0,1-43.31,22.37c-2.81-4.1-24.87-36.73-47.4-78.46C120.13,167.25,126.19,44.25,126.71,35.6L226.46,43,332.59,157.7S341.61,295.81,275,342.28Z" transform="translate(-17.52 -2.22)"/></g><g id="Layer_3" data-name="Layer 3"><path class="cls-7" d="M261.38,170.89V135c0-15.27-10-33.47-22.3-40.57l-29.5-17c-4.31-2.49-8.34-3.28-11.76-2.61-.89.17-8.82,2.35-8.82,2.35a65.87,65.87,0,0,0-1.72,15.08v35.93c-3.59-1.91-6.91-2.31-9.63-1.42-.57.18-5.73,1.25-6.25,1.55-3.43,2-1,5.59-1,11.87v58.73c0,12,7.85,26.28,17.52,31.86L264,276.28a73.35,73.35,0,0,0,10.38-3.82c3-1.52,3.85-6.23,3.85-11.38V202.34C278.23,190.61,270.75,176.74,261.38,170.89Zm-51.8-78,29.5,17c5.4,3.12,9.79,11.11,9.79,17.81v35.91l-49.08-28.34V99.4C199.79,92.7,204.18,89.78,209.58,92.9Z" transform="translate(-17.52 -2.22)"/><path class="cls-8" d="M254.93,172.51V136.58c0-15.27-10-33.47-22.3-40.57l-29.5-17c-5.36-3.1-10.28-3.58-14.13-1.88-5,2.21-8.17,8.08-8.17,16.69v35.93c-3.5-1.86-6.75-2.29-9.43-1.48-4.49,1.34-7.42,6.14-7.42,13.48v58.74c0,12,7.85,26.27,17.52,31.86l72.76,42c3.61,2.08,7,2.66,9.74,1.95,4.69-1.2,7.78-6,7.78-13.59V204C271.78,192.22,264.3,178.35,254.93,172.51Zm-51.8-78,29.5,17c5.4,3.12,9.79,11.11,9.79,17.82v35.9l-49.08-28.34V101C193.34,94.31,197.73,91.39,203.13,94.51Z" transform="translate(-17.52 -2.22)"/></g></svg>