<svg xmlns="http://www.w3.org/2000/svg" xmlns:xlink="http://www.w3.org/1999/xlink" viewBox="0 0 79.28 87.57"><defs><style>.cls-1{fill:url(#linear-gradient);}.cls-2{fill:url(#New_Gradient_Swatch_12);}</style><linearGradient id="linear-gradient" x1="-186.76" y1="-19.66" x2="-288.24" y2="-20.35" gradientTransform="matrix(-0.53, -0.85, -0.85, 0.53, -121.31, -152.08)" gradientUnits="userSpaceOnUse"><stop offset="0.43" stop-color="#593b97"/><stop offset="0.55" stop-color="#72588c"/><stop offset="0.82" stop-color="#b0a270"/><stop offset="1" stop-color="#dbd65d"/></linearGradient><linearGradient id="New_Gradient_Swatch_12" x1="-293.89" y1="-43.33" x2="-209.16" y2="-43.33" gradientTransform="matrix(-0.53, -0.85, -0.85, 0.53, -121.31, -152.08)" gradientUnits="userSpaceOnUse"><stop offset="0" stop-color="#f29050"/><stop offset="1" stop-color="#3c4472"/></linearGradient></defs><title>Circle_1</title><g id="Layer_2" data-name="Layer 2"><g id="Layer_5" data-name="Layer 5"><path class="cls-1" d="M0,29.73l.37,9.43C1,55.13,14.76,75,31.09,83.64h0c8.87,4.67,16.68,5,21.86,1.84C54.22,84.69,72.13,74,73.06,72.79c2.26-2.91-13.33,2.66-13.54-2.5l-.36-9.43c-.63-16-14.37-35.89-30.7-44.48h0c-5.73-3,2.88-15-1.54-14.63C24.27,2,8,13.55,6.08,14.89,2.05,17.66-.25,22.73,0,29.73Z"/><path class="cls-2" d="M19.76,17.28l.37,9.43c.62,16,14.36,35.89,30.69,44.48h0c9.09,4.79,17.06,5.06,22.24,1.6,4.13-2.75,6.48-7.86,6.2-15l-.37-9.43c-.62-16-14.36-35.88-30.69-44.48h0c-8.55-4.5-16.1-5-21.28-2.18C22.2,4.32,19.46,9.66,19.76,17.28Z"/></g></g></svg>