<svg xmlns="http://www.w3.org/2000/svg" xmlns:xlink="http://www.w3.org/1999/xlink" viewBox="0 0 548.26 544.72"><defs><style>.cls-1{fill:url(#linear-gradient);}.cls-2{fill:url(#linear-gradient-2);}.cls-3{fill:url(#linear-gradient-3);}.cls-4{fill:url(#linear-gradient-4);}.cls-5{fill:url(#New_Gradient_Swatch_11);}.cls-6{fill:url(#New_Gradient_Swatch_10);}.cls-7{fill:url(#New_Gradient_Swatch_10-2);}.cls-8{fill:url(#New_Gradient_Swatch_16);}.cls-9{fill:url(#New_Gradient_Swatch_12);}.cls-10{fill:url(#New_Gradient_Swatch_12-2);}.cls-11{fill:url(#linear-gradient-5);}.cls-12{fill:url(#New_Gradient_Swatch_14);}.cls-13{fill:#1e2123;}.cls-14{fill:#37383a;}.cls-15{fill:#535355;}.cls-16{fill:url(#linear-gradient-6);}.cls-17{fill:url(#New_Gradient_Swatch_12-3);}.cls-18{fill:url(#New_Gradient_Swatch_12-4);}.cls-19{fill:url(#New_Gradient_Swatch_14-2);}.cls-20{fill:url(#linear-gradient-7);}.cls-21{fill:url(#New_Gradient_Swatch_12-5);}.cls-22{fill:url(#linear-gradient-8);}.cls-23{fill:url(#New_Gradient_Swatch_14-3);}.cls-24{fill:url(#linear-gradient-9);}.cls-25{fill:url(#linear-gradient-10);}.cls-26{fill:url(#New_Gradient_Swatch_14-4);}.cls-27{fill:url(#New_Gradient_Swatch_14-5);}.cls-28{fill:#8d8e91;}.cls-29{fill:url(#linear-gradient-11);}.cls-30{fill:url(#New_Gradient_Swatch_12-6);}.cls-31{fill:url(#New_Gradient_Swatch_12-7);}.cls-32{fill:url(#New_Gradient_Swatch_12-8);}.cls-33{fill:url(#New_Gradient_Swatch_11-2);}.cls-34{fill:url(#New_Gradient_Swatch_11-3);}.cls-35{fill:url(#New_Gradient_Swatch_12-9);}.cls-36{fill:url(#New_Gradient_Swatch_11-4);}.cls-37{fill:url(#New_Gradient_Swatch_12-10);}.cls-38{fill:url(#New_Gradient_Swatch_11-5);}.cls-39{fill:#4e4e4e;}.cls-40{fill:url(#New_Gradient_Swatch_13);}.cls-41{fill:url(#New_Gradient_Swatch_13-2);}.cls-42{fill:url(#New_Gradient_Swatch_13-3);}.cls-43{fill:url(#New_Gradient_Swatch_13-4);}.cls-44{fill:url(#New_Gradient_Swatch_13-5);}.cls-45{fill:url(#New_Gradient_Swatch_13-6);}.cls-46{fill:url(#New_Gradient_Swatch_13-7);}.cls-47{fill:url(#New_Gradient_Swatch_13-8);}.cls-48{fill:url(#New_Gradient_Swatch_12-11);}.cls-49{fill:url(#New_Gradient_Swatch_12-12);}</style><linearGradient id="linear-gradient" x1="-40.75" y1="204.68" x2="480.18" y2="148.13" gradientUnits="userSpaceOnUse"><stop offset="0" stop-color="#fbeef5"/><stop offset="0.03" stop-color="#f4d3e6"/><stop offset="0.21" stop-color="#d04f9d"/><stop offset="0.24" stop-color="#bc4c9c"/><stop offset="0.34" stop-color="#83439a"/><stop offset="0.38" stop-color="#6d4099"/><stop offset="0.44" stop-color="#673d91"/><stop offset="0.54" stop-color="#55347a"/><stop offset="0.65" stop-color="#382554"/><stop offset="0.78" stop-color="#111021"/><stop offset="0.79" stop-color="#0f0f1e"/></linearGradient><linearGradient id="linear-gradient-2" x1="-56.45" y1="225.36" x2="454.2" y2="141.39" gradientUnits="userSpaceOnUse"><stop offset="0" stop-color="#fbeef5"/><stop offset="0.02" stop-color="#f4d3e6"/><stop offset="0.12" stop-color="#d04f9d"/><stop offset="0.24" stop-color="#bc4c9c"/><stop offset="0.58" stop-color="#83439a"/><stop offset="0.75" stop-color="#6d4099"/><stop offset="0.78" stop-color="#673d91"/><stop offset="0.84" stop-color="#55347a"/><stop offset="0.91" stop-color="#382554"/><stop offset="1" stop-color="#111021"/><stop offset="1" stop-color="#0f0f1e"/></linearGradient><linearGradient id="linear-gradient-3" x1="323.28" y1="272.14" x2="206.76" y2="174.46" gradientUnits="userSpaceOnUse"><stop offset="0" stop-color="#555755"/><stop offset="1" stop-color="#2f3030"/></linearGradient><linearGradient id="linear-gradient-4" x1="-6.58" y1="491.54" x2="610.31" y2="289.34" gradientUnits="userSpaceOnUse"><stop offset="0" stop-color="#fbeef5"/><stop offset="0.02" stop-color="#f4d3e6"/><stop offset="0.14" stop-color="#d04f9d"/><stop offset="0.17" stop-color="#bc4c9c"/><stop offset="0.27" stop-color="#83439a"/><stop offset="0.32" stop-color="#6d4099"/><stop offset="0.41" stop-color="#673d91"/><stop offset="0.57" stop-color="#55347a"/><stop offset="0.77" stop-color="#382554"/><stop offset="0.99" stop-color="#111021"/><stop offset="1" stop-color="#0f0f1e"/></linearGradient><linearGradient id="New_Gradient_Swatch_11" x1="663.54" y1="454.13" x2="22.65" y2="327.33" gradientTransform="matrix(-0.97, -0.24, -0.24, 0.97, 722.14, 94.54)" gradientUnits="userSpaceOnUse"><stop offset="0" stop-color="#fbeef5"/><stop offset="0.04" stop-color="#f4d3e6"/><stop offset="0.24" stop-color="#d04f9d"/><stop offset="0.29" stop-color="#bc4c9c"/><stop offset="0.44" stop-color="#83439a"/><stop offset="0.51" stop-color="#6d4099"/><stop offset="0.58" stop-color="#673d91"/><stop offset="0.69" stop-color="#55347a"/><stop offset="0.83" stop-color="#382554"/><stop offset="0.99" stop-color="#111021"/><stop offset="1" stop-color="#0f0f1e"/></linearGradient><linearGradient id="New_Gradient_Swatch_10" x1="306.14" y1="377.34" x2="526.29" y2="377.34" gradientUnits="userSpaceOnUse"><stop offset="0" stop-color="#fbeef5"/><stop offset="0.04" stop-color="#f4d3e6"/><stop offset="0.24" stop-color="#d04f9d"/><stop offset="0.3" stop-color="#bc4c9c"/><stop offset="0.48" stop-color="#83439a"/><stop offset="0.56" stop-color="#6d4099"/><stop offset="0.63" stop-color="#673d91"/><stop offset="0.73" stop-color="#55347a"/><stop offset="0.85" stop-color="#382554"/><stop offset="0.99" stop-color="#111021"/><stop offset="1" stop-color="#0f0f1e"/></linearGradient><linearGradient id="New_Gradient_Swatch_10-2" x1="609.12" y1="538.59" x2="319.28" y2="371.06" gradientTransform="matrix(-0.97, -0.24, -0.24, 0.97, 722.14, 94.54)" xlink:href="#New_Gradient_Swatch_10"/><linearGradient id="New_Gradient_Swatch_16" x1="517.61" y1="349.78" x2="171.47" y2="420.04" gradientUnits="userSpaceOnUse"><stop offset="0.27" stop-color="#26296e"/><stop offset="0.36" stop-color="#252866"/><stop offset="0.73" stop-color="#242447"/><stop offset="0.94" stop-color="#23223c"/></linearGradient><linearGradient id="New_Gradient_Swatch_12" x1="161.76" y1="355.63" x2="217.07" y2="377.87" gradientTransform="matrix(-0.97, -0.24, -0.24, 0.97, 722.14, 94.54)" gradientUnits="userSpaceOnUse"><stop offset="0" stop-color="#f29050"/><stop offset="1" stop-color="#3c4472"/></linearGradient><linearGradient id="New_Gradient_Swatch_12-2" x1="169.76" y1="367.49" x2="236.07" y2="367.49" xlink:href="#New_Gradient_Swatch_12"/><linearGradient id="linear-gradient-5" x1="306.22" y1="425.11" x2="239.47" y2="416.59" gradientTransform="matrix(-0.97, -0.24, -0.24, 0.97, 722.14, 94.54)" gradientUnits="userSpaceOnUse"><stop offset="0" stop-color="#593b97"/><stop offset="0.14" stop-color="#5d4095"/><stop offset="0.31" stop-color="#684d90"/><stop offset="0.48" stop-color="#7c6488"/><stop offset="0.66" stop-color="#96847c"/><stop offset="0.84" stop-color="#b9ad6c"/><stop offset="1" stop-color="#dbd65d"/></linearGradient><linearGradient id="New_Gradient_Swatch_14" x1="312.88" y1="429.02" x2="250.47" y2="401.63" gradientTransform="matrix(-0.97, -0.24, -0.24, 0.97, 722.14, 94.54)" gradientUnits="userSpaceOnUse"><stop offset="0" stop-color="#593b97"/><stop offset="0.22" stop-color="#72588c"/><stop offset="0.69" stop-color="#b0a270"/><stop offset="1" stop-color="#dbd65d"/></linearGradient><linearGradient id="linear-gradient-6" x1="426.97" y1="421.73" x2="377.25" y2="421.39" gradientTransform="matrix(-0.97, -0.24, -0.24, 0.97, 722.14, 94.54)" gradientUnits="userSpaceOnUse"><stop offset="0.43" stop-color="#593b97"/><stop offset="0.55" stop-color="#72588c"/><stop offset="0.82" stop-color="#b0a270"/><stop offset="1" stop-color="#dbd65d"/></linearGradient><linearGradient id="New_Gradient_Swatch_12-3" x1="374.48" y1="410.13" x2="416" y2="410.13" xlink:href="#New_Gradient_Swatch_12"/><linearGradient id="New_Gradient_Swatch_12-4" x1="406.49" y1="383.41" x2="446.34" y2="398.74" xlink:href="#New_Gradient_Swatch_12"/><linearGradient id="New_Gradient_Swatch_14-2" x1="464.42" y1="392.34" x2="420.66" y2="382.83" xlink:href="#New_Gradient_Swatch_14"/><linearGradient id="linear-gradient-7" x1="460.98" y1="390.95" x2="499.76" y2="392.66" gradientTransform="matrix(-0.97, -0.24, -0.24, 0.97, 722.14, 94.54)" gradientUnits="userSpaceOnUse"><stop offset="0.25" stop-color="#f29050"/><stop offset="1" stop-color="#3c4472"/></linearGradient><linearGradient id="New_Gradient_Swatch_12-5" x1="473.2" y1="375.97" x2="521.66" y2="376.54" xlink:href="#New_Gradient_Swatch_12"/><linearGradient id="linear-gradient-8" x1="524.26" y1="433.76" x2="471.81" y2="432.4" gradientTransform="matrix(-0.97, -0.24, -0.24, 0.97, 722.14, 94.54)" gradientUnits="userSpaceOnUse"><stop offset="0.32" stop-color="#593b97"/><stop offset="0.41" stop-color="#72588c"/><stop offset="0.61" stop-color="#b0a270"/><stop offset="0.74" stop-color="#dbd65d"/></linearGradient><linearGradient id="New_Gradient_Swatch_14-3" x1="522.74" y1="428.51" x2="492.3" y2="426.98" xlink:href="#New_Gradient_Swatch_14"/><linearGradient id="linear-gradient-9" x1="372.85" y1="459.36" x2="335.72" y2="460.72" gradientTransform="matrix(-0.97, -0.24, -0.24, 0.97, 722.14, 94.54)" gradientUnits="userSpaceOnUse"><stop offset="0.32" stop-color="#593b97"/><stop offset="0.47" stop-color="#72588c"/><stop offset="0.79" stop-color="#b0a270"/><stop offset="1" stop-color="#dbd65d"/></linearGradient><linearGradient id="linear-gradient-10" x1="436.64" y1="450.97" x2="402.24" y2="453.69" gradientTransform="matrix(-0.97, -0.24, -0.24, 0.97, 722.14, 94.54)" gradientUnits="userSpaceOnUse"><stop offset="0.35" stop-color="#593b97"/><stop offset="0.49" stop-color="#72588c"/><stop offset="0.8" stop-color="#b0a270"/><stop offset="1" stop-color="#dbd65d"/></linearGradient><linearGradient id="New_Gradient_Swatch_14-4" x1="381.2" y1="456.43" x2="335.92" y2="446.54" xlink:href="#New_Gradient_Swatch_14"/><linearGradient id="New_Gradient_Swatch_14-5" x1="447.69" y1="447.36" x2="403.93" y2="443.55" xlink:href="#New_Gradient_Swatch_14"/><linearGradient id="linear-gradient-11" x1="422.71" y1="451.43" x2="464.33" y2="468.54" gradientTransform="matrix(-0.97, -0.24, -0.24, 0.97, 722.14, 94.54)" gradientUnits="userSpaceOnUse"><stop offset="0.29" stop-color="#f29050"/><stop offset="0.41" stop-color="#d28356"/><stop offset="0.82" stop-color="#67566a"/><stop offset="1" stop-color="#3c4472"/></linearGradient><linearGradient id="New_Gradient_Swatch_12-6" x1="423.3" y1="456.22" x2="495.71" y2="464.2" xlink:href="#New_Gradient_Swatch_12"/><linearGradient id="New_Gradient_Swatch_12-7" x1="378.96" y1="486.04" x2="392.2" y2="486.04" xlink:href="#New_Gradient_Swatch_12"/><linearGradient id="New_Gradient_Swatch_12-8" x1="390.4" y1="479.29" x2="403.63" y2="479.29" xlink:href="#New_Gradient_Swatch_12"/><linearGradient id="New_Gradient_Swatch_11-2" x1="390.4" y1="471.92" x2="403.63" y2="471.92" xlink:href="#New_Gradient_Swatch_11"/><linearGradient id="New_Gradient_Swatch_11-3" x1="378.96" y1="478.68" x2="392.2" y2="478.68" xlink:href="#New_Gradient_Swatch_11"/><linearGradient id="New_Gradient_Swatch_12-9" x1="400.27" y1="485" x2="413.51" y2="485" xlink:href="#New_Gradient_Swatch_12"/><linearGradient id="New_Gradient_Swatch_11-4" x1="400.27" y1="477.64" x2="413.51" y2="477.64" xlink:href="#New_Gradient_Swatch_11"/><linearGradient id="New_Gradient_Swatch_12-10" x1="388.84" y1="492.28" x2="402.08" y2="492.28" xlink:href="#New_Gradient_Swatch_12"/><linearGradient id="New_Gradient_Swatch_11-5" x1="388.84" y1="484.92" x2="402.08" y2="484.92" xlink:href="#New_Gradient_Swatch_11"/><linearGradient id="New_Gradient_Swatch_13" x1="312.46" y1="284.34" x2="332.77" y2="284.34" gradientTransform="matrix(-0.97, -0.24, -0.24, 0.97, 722.14, 94.54)" gradientUnits="userSpaceOnUse"><stop offset="0" stop-color="#f3756d"/><stop offset="0.18" stop-color="#d66d69"/><stop offset="0.56" stop-color="#8b595e"/><stop offset="1" stop-color="#2d3f50"/></linearGradient><linearGradient id="New_Gradient_Swatch_13-2" x1="312.49" y1="272.87" x2="332.77" y2="272.87" xlink:href="#New_Gradient_Swatch_13"/><linearGradient id="New_Gradient_Swatch_13-3" x1="329.61" y1="293.81" x2="349.92" y2="293.81" xlink:href="#New_Gradient_Swatch_13"/><linearGradient id="New_Gradient_Swatch_13-4" x1="329.64" y1="282.33" x2="349.92" y2="282.33" xlink:href="#New_Gradient_Swatch_13"/><linearGradient id="New_Gradient_Swatch_13-5" x1="346.76" y1="303.27" x2="367.07" y2="303.27" xlink:href="#New_Gradient_Swatch_13"/><linearGradient id="New_Gradient_Swatch_13-6" x1="346.79" y1="291.8" x2="367.07" y2="291.8" xlink:href="#New_Gradient_Swatch_13"/><linearGradient id="New_Gradient_Swatch_13-7" x1="363.91" y1="312.74" x2="384.22" y2="312.74" xlink:href="#New_Gradient_Swatch_13"/><linearGradient id="New_Gradient_Swatch_13-8" x1="363.94" y1="301.26" x2="384.22" y2="301.26" xlink:href="#New_Gradient_Swatch_13"/><linearGradient id="New_Gradient_Swatch_12-11" x1="206.14" y1="321.91" x2="252.9" y2="320.77" xlink:href="#New_Gradient_Swatch_12"/><linearGradient id="New_Gradient_Swatch_12-12" x1="223.47" y1="308.76" x2="300.88" y2="308.76" xlink:href="#New_Gradient_Swatch_12"/></defs><title>Laptop_1</title><g id="Layer_2" data-name="Layer 2"><g id="laptop"><path class="cls-1" d="M17.08,353.43,427.14,13.54C426.07,4.72,418.63-1.75,411.23.42l-341.29,100c-7.4,2.17-15.11,10.94-17.21,19.59L.33,335.28C-1.78,343.94,6.51,357.27,17.08,353.43Z"/><path class="cls-2" d="M15.76,353.79l341.29-100c7.4-2.16,15.11-10.93,17.21-19.58l52.4-215.33c2.1-8.65-2.19-13.91-9.59-11.74l-341.29,100c-7.4,2.17-15.11,10.94-17.21,19.59L6.17,342.05C4.06,350.71,8.36,356,15.76,353.79Z"/><polygon class="cls-3" points="27.88 337.2 354.5 239.09 405.73 28.57 79.11 126.68 27.88 337.2"/><path class="cls-4" d="M6.45,377.36,177.22,540.42c3.91,3.74,11.94,5.34,17.94,3.59L538.88,443.35c6-1.76,13.62-17.4,6.52-23.4L17.08,353.43C1.46,356.05,2.54,373.63,6.45,377.36Z"/><path class="cls-5" d="M9.65,364.23,180.41,527.29c3.92,3.74,12,5.34,17.94,3.59L542.07,430.22c6-1.76,7.68-6.21,3.77-10l-170.77-163c-3.91-3.74-11.94-5.34-17.93-3.59L13.42,354.29C7.42,356.05,5.73,360.5,9.65,364.23Z"/><polygon class="cls-6" points="526.29 424.31 515.32 427.53 306.14 488.78 360.38 265.89 526.29 424.31"/><polygon class="cls-7" points="359.85 265.39 360.38 265.89 306.14 488.78 197.41 520.62 39.24 369.59 30.97 361.7 359.85 265.39"/><polygon class="cls-8" points="39.24 369.59 197.41 520.62 515.32 427.53 357.14 276.5 39.24 369.59"/><polygon class="cls-9" points="405.03 399.25 432.77 425.74 469.31 415.04 470.27 411.56 405.89 395.72 405.03 399.25"/><polygon class="cls-10" points="405.89 395.72 433.63 422.21 470.27 411.56 442.43 385.02 405.89 395.72"/><polygon class="cls-11" points="323.48 436.29 340.68 452.71 401.34 434.94 402.94 428.38 325.08 429.72 323.48 436.29"/><polygon class="cls-12" points="325.08 429.72 342.28 446.14 402.94 428.38 385.74 411.96 325.08 429.72"/><polygon class="cls-13" points="358.04 390.86 352.55 392.47 286.42 411.84 286.34 411.77 303.99 339.25 358.04 390.86"/><polygon class="cls-14" points="232.05 359.92 303.67 338.95 303.99 339.25 286.34 411.77 236.18 363.87 232.05 359.92"/><polygon class="cls-15" points="236.18 363.87 286.42 411.84 352.55 392.47 302.32 344.5 236.18 363.87"/><path class="cls-16" d="M221,413.7l3.35,3.19c5.66,5.41,17.29,7.74,26,5.2h0c4.71-1.39,7.59-3.92,8.32-6.81.18-.71,2.84-10.58,2.76-11.32-.2-1.8-3.79,5.48-5.62,3.73l-3.35-3.19c-5.66-5.41-17.29-7.74-26-5.19h0c-3,.89-4.1-6.27-5.53-4.63-.85,1-2.62,10.6-2.85,11.73C217.64,408.76,218.56,411.33,221,413.7Z"/><path class="cls-17" d="M223.75,402.59l3.34,3.19c5.67,5.41,17.29,7.74,26,5.2h0c4.83-1.42,7.73-4,8.38-7,.51-2.38-.41-5-2.92-7.38l-3.35-3.19c-5.66-5.41-17.29-7.74-26-5.19h0c-4.54,1.33-7.38,3.72-8.24,6.48C220.19,397.2,221.05,400,223.75,402.59Z"/><path class="cls-18" d="M186.8,380.76l3.35,3.2c5.66,5.41,17.29,7.73,26,5.19h0c4.71-1.38,7.59-3.92,8.32-6.81.18-.71,2.84-10.58,2.75-11.32-.19-1.8-3.78,5.48-5.61,3.73l-3.35-3.19c-5.66-5.41-17.29-7.73-26-5.19h0c-3,.89-4.1-6.27-5.53-4.63-.85,1-2.62,10.6-2.85,11.73C183.4,375.83,184.32,378.39,186.8,380.76Z"/><path class="cls-19" d="M189.51,369.65l3.34,3.2c5.67,5.41,17.29,7.73,26,5.19h0c4.83-1.42,7.73-4,8.37-7,.52-2.37-.4-5-2.91-7.38l-3.35-3.19c-5.66-5.41-17.29-7.73-26-5.19h0c-4.54,1.33-7.38,3.73-8.24,6.48C186,364.26,186.81,367.07,189.51,369.65Z"/><path class="cls-20" d="M123.91,367l3.34,3.19c5.67,5.41,17.29,7.73,26,5.19h0c4.71-1.38,7.58-3.9,8.32-6.79.63-2.43,5.43-22.3,5.43-22.3s-31.89-11.46-40.56-8.92c0,0-4.78,19.28-5.42,22.27C120.48,362,121.4,364.61,123.91,367Z"/><path class="cls-21" d="M129.32,344.79l3.34,3.19c5.67,5.41,17.29,7.73,26,5.19h0c4.75-1.39,7.63-3.95,8.34-6.87.58-2.41-.32-5.07-2.88-7.52l-3.35-3.2c-5.66-5.4-17.29-7.73-26-5.19h0c-4.81,1.41-7.71,4-8.36,7C125.88,339.77,126.79,342.38,129.32,344.79Z"/><polygon class="cls-22" points="129.18 409.43 110.32 391.42 111.67 385.86 135.17 384.14 155.38 396.6 154.03 402.15 129.18 409.43"/><polygon class="cls-23" points="130.53 403.88 111.67 385.86 136.52 378.59 155.38 396.6 130.53 403.88"/><polygon class="cls-24" points="254.58 454.39 271.78 470.81 294.43 464.18 297.01 453.57 277.24 447.75 257.16 443.79 254.58 454.39"/><polygon class="cls-25" points="190.03 428.07 207.22 444.5 229.88 437.86 231.11 432.81 191.25 423.02 190.03 428.07"/><polygon class="cls-26" points="257.16 443.79 274.36 460.21 297.01 453.57 279.82 437.15 257.16 443.79"/><polygon class="cls-27" points="191.25 423.02 208.45 439.45 231.11 432.81 213.91 416.39 191.25 423.02"/><polygon class="cls-28" points="215.87 468.5 221.42 473.79 228.73 471.65 223.18 466.35 215.87 468.5"/><polygon class="cls-28" points="204.91 471.7 210.46 477 217.76 474.86 212.22 469.56 204.91 471.7"/><polygon class="cls-28" points="214.34 480.71 219.89 486.01 227.2 483.87 221.65 478.57 214.34 480.71"/><polygon class="cls-29" points="166.21 466.24 126.81 428.62 129.52 417.51 153.13 420.92 195.22 447.42 192.52 458.53 166.21 466.24"/><polygon class="cls-30" points="168.91 455.13 129.52 417.51 155.83 409.81 195.22 447.42 168.91 455.13"/><polygon class="cls-31" points="225.3 477.5 230.85 482.8 238.16 480.66 240.74 470.05 227.88 466.9 225.3 477.5"/><polygon class="cls-32" points="215.79 468.23 221.34 473.53 228.65 471.39 231.23 460.79 218.37 457.63 215.79 468.23"/><polygon class="cls-33" points="218.37 457.63 223.92 462.93 231.23 460.79 225.68 455.49 218.37 457.63"/><polygon class="cls-34" points="227.88 466.9 233.43 472.19 240.74 470.05 235.19 464.76 227.88 466.9"/><polygon class="cls-35" points="204.84 471.45 210.39 476.75 217.7 474.61 220.28 464 207.42 460.85 204.84 471.45"/><polygon class="cls-36" points="207.42 460.85 212.97 466.14 220.28 464 214.73 458.71 207.42 460.85"/><polygon class="cls-37" points="214.23 481.23 219.78 486.52 227.09 484.38 229.67 473.78 216.81 470.62 214.23 481.23"/><polygon class="cls-38" points="216.81 470.62 222.36 475.92 229.67 473.78 224.12 468.48 216.81 470.62"/><polygon class="cls-39" points="332.9 330.39 390.05 384.95 405.4 380.46 406.75 374.9 348.25 325.89 334.26 324.83 332.9 330.39"/><polygon class="cls-28" points="334.26 324.83 391.4 379.4 406.75 374.9 349.6 320.34 334.26 324.83"/><path class="cls-40" d="M331.6,301.51l1.63,1.56c2.77,2.64,8.44,3.78,12.68,2.54h0c2.22-.65,3.6-1.82,4-3.17S354,285.73,354,285.73L334.3,281s-3.68,15.35-4.08,16.72A3.79,3.79,0,0,0,331.6,301.51Z"/><path class="cls-41" d="M335.65,284.85l1.63,1.56c2.77,2.64,8.45,3.77,12.69,2.53h0c2.24-.65,3.63-1.84,4-3.21a3.79,3.79,0,0,0-1.37-3.82L351,280.35c-2.77-2.64-8.45-3.77-12.68-2.53h0c-2.22.65-3.6,1.82-4,3.17A3.75,3.75,0,0,0,335.65,284.85Z"/><path class="cls-42" d="M312.69,306.65l1.64,1.56c2.76,2.65,8.44,3.78,12.68,2.54h0c2.22-.65,3.6-1.82,4-3.17s4.07-16.71,4.07-16.71l-19.71-4.74s-3.67,15.35-4.07,16.72A3.78,3.78,0,0,0,312.69,306.65Z"/><path class="cls-43" d="M316.75,290l1.63,1.56c2.77,2.64,8.45,3.78,12.68,2.53h0c2.25-.65,3.64-1.84,4-3.21a3.77,3.77,0,0,0-1.37-3.81l-1.63-1.57c-2.77-2.64-8.45-3.77-12.69-2.53h0c-2.21.65-3.6,1.82-4,3.17A3.77,3.77,0,0,0,316.75,290Z"/><path class="cls-44" d="M293.79,311.8l1.63,1.56c2.77,2.64,8.45,3.77,12.69,2.53h0c2.21-.65,3.6-1.82,4-3.17S316.2,296,316.2,296l-19.71-4.74s-3.67,15.35-4.07,16.72A3.8,3.8,0,0,0,293.79,311.8Z"/><path class="cls-45" d="M297.85,295.13l1.63,1.56c2.77,2.64,8.44,3.78,12.68,2.54h0c2.25-.66,3.64-1.85,4-3.22a3.8,3.8,0,0,0-1.37-3.81l-1.64-1.56c-2.76-2.65-8.44-3.78-12.68-2.54h0c-2.22.65-3.6,1.82-4,3.17A3.77,3.77,0,0,0,297.85,295.13Z"/><path class="cls-46" d="M274.89,316.94l1.63,1.56c2.77,2.64,8.45,3.77,12.68,2.53h0c2.22-.65,3.61-1.82,4-3.17s4.06-16.71,4.06-16.71l-19.7-4.74s-3.68,15.35-4.07,16.72A3.78,3.78,0,0,0,274.89,316.94Z"/><path class="cls-47" d="M278.94,300.27l1.64,1.56c2.76,2.64,8.44,3.78,12.68,2.54h0c2.24-.66,3.63-1.85,4-3.22a3.77,3.77,0,0,0-1.36-3.81l-1.64-1.56c-2.76-2.64-8.44-3.78-12.68-2.54h0c-2.22.65-3.6,1.82-4,3.17A3.76,3.76,0,0,0,278.94,300.27Z"/><path class="cls-48" d="M358,327.9,407.34,375c2.77,2.64,8.45,3.78,12.69,2.54h0c2.11-.62,3.47-1.72,4-3S428,357.9,428,357.9s-63.2-51.36-67.44-50.12c0,0-3.68,15-4,16.47A3.85,3.85,0,0,0,358,327.9Z"/><path class="cls-49" d="M362.05,311.24l49.35,47.12c2.77,2.64,8.44,3.77,12.68,2.53h0c2.12-.62,3.48-1.72,4-3s.09-2.72-1.29-4L377.4,306.74c-2.77-2.64-8.44-3.77-12.68-2.53h0c-2.44.71-3.87,2.06-4.12,3.57A4,4,0,0,0,362.05,311.24Z"/></g></g></svg>